<?xml version="1.0" standalone="no"?>
<!DOCTYPE svg PUBLIC "-//W3C//DTD SVG 20010904//EN"
 "http://www.w3.org/TR/2001/REC-SVG-20010904/DTD/svg10.dtd">
<svg version="1.0" xmlns="http://www.w3.org/2000/svg"
 width="700.000000pt" height="700.000000pt" viewBox="0 0 700.000000 700.000000"
 preserveAspectRatio="xMidYMid meet">
<metadata>
Created by potrace 1.11, written by Peter Selinger 2001-2013
</metadata>
<g transform="translate(0.000000,700.000000) scale(0.100000,-0.100000)"
fill="#000000" stroke="none">
<path d="M4740 6409 c-98 -13 -133 -20 -230 -51 -94 -30 -263 -107 -370 -168
-77 -45 -261 -172 -345 -239 -84 -67 -102 -82 -233 -200 -33 -29 -62 -54 -64
-55 -3 0 -41 32 -86 73 -186 169 -433 349 -597 436 -38 20 -74 41 -80 45 -19
14 -220 93 -285 111 -174 50 -364 59 -480 24 -214 -65 -362 -243 -434 -521 -9
-33 -18 -77 -22 -98 -3 -21 -8 -48 -10 -60 -10 -51 -17 -182 -17 -311 1 -191
12 -294 69 -625 3 -14 13 -58 23 -98 13 -51 15 -75 7 -77 -441 -145 -661 -240
-864 -376 -282 -190 -434 -370 -489 -582 -15 -57 -20 -183 -9 -232 80 -379
541 -744 1225 -971 77 -25 141 -52 141 -58 0 -6 -5 -27 -10 -46 -6 -19 -12
-46 -14 -60 -2 -14 -11 -59 -20 -101 -60 -291 -79 -692 -41 -886 2 -11 6 -36
9 -54 3 -19 17 -74 31 -122 137 -472 486 -628 1000 -447 277 98 605 308 888
570 32 30 63 56 68 58 5 2 50 -34 101 -80 374 -337 754 -556 1068 -614 59 -10
218 -12 273 -2 250 45 428 239 512 561 13 50 27 115 31 142 3 28 9 59 11 70
10 38 11 440 2 510 -32 253 -43 317 -70 433 -10 46 -17 88 -14 93 3 4 25 13
48 20 156 41 508 191 672 286 284 165 510 386 586 573 67 168 64 307 -10 467
-146 312 -567 599 -1168 798 -155 51 -151 47 -132 120 26 107 65 342 78 475 9
96 7 463 -2 510 -3 14 -9 48 -13 75 -4 28 -8 52 -9 55 -1 3 -5 23 -10 45 -11
53 -47 158 -75 220 -125 268 -357 400 -640 364z m246 -314 c102 -60 180 -220
215 -435 21 -134 18 -426 -6 -625 -4 -32 -40 -235 -49 -280 -9 -41 -19 -81
-22 -86 -2 -3 -31 0 -66 7 -109 23 -381 73 -423 78 -362 43 -390 47 -405 69
-18 26 -180 246 -197 267 -101 129 -193 238 -310 370 -13 13 -23 27 -23 30 0
16 237 221 355 307 178 129 345 223 495 278 98 36 132 44 210 51 36 4 66 8 68
9 10 8 125 -21 158 -40z m-2711 21 c22 -4 51 -11 65 -15 14 -5 45 -14 70 -21
140 -40 476 -231 607 -345 6 -5 26 -21 45 -35 42 -32 198 -168 220 -193 16
-18 14 -23 -65 -111 -113 -127 -122 -137 -229 -272 -71 -90 -235 -307 -242
-321 -1 -1 -32 -4 -71 -8 -38 -3 -77 -8 -85 -10 -8 -2 -44 -7 -80 -10 -36 -4
-72 -9 -81 -10 -9 -2 -40 -6 -70 -10 -30 -4 -139 -22 -244 -41 -104 -20 -204
-38 -220 -41 l-31 -5 -32 164 c-51 256 -65 385 -65 578 0 102 7 216 17 260 1
8 7 38 11 65 5 28 9 52 10 55 7 40 55 152 84 198 44 67 84 99 154 123 49 17
147 19 232 5z m1376 -1001 c139 -165 230 -285 217 -286 -7 0 -56 1 -108 2 -52
1 -220 2 -372 1 l-278 -2 66 83 c94 118 99 123 214 257 l105 120 40 -42 c22
-24 75 -83 116 -133z m191 -569 c138 -5 250 -14 254 -19 24 -28 324 -512 324
-522 0 -2 21 -39 46 -82 26 -43 87 -156 136 -250 l90 -173 -95 -182 c-192
-371 -485 -853 -519 -856 -329 -20 -780 -21 -1170 -2 -5 0 -66 89 -164 240
-114 177 -270 452 -379 670 l-66 131 89 172 c121 232 139 265 260 467 79 132
211 339 247 387 4 6 101 13 255 19 91 3 166 7 167 8 4 3 388 -2 525 -8z
m-1312 -52 c0 -4 -49 -88 -109 -188 -116 -193 -261 -454 -261 -471 -2 -42
-210 502 -210 549 0 10 112 36 310 72 14 2 34 6 45 8 11 2 47 7 80 11 33 3 76
10 95 15 47 11 50 11 50 4z m1990 -8 c30 -4 98 -13 150 -22 52 -9 104 -17 115
-18 32 -5 187 -37 227 -47 l37 -9 -45 -133 c-41 -118 -103 -282 -149 -390
l-16 -39 -108 194 c-59 106 -145 254 -190 328 -46 74 -86 139 -89 144 -3 5 -1
7 4 4 5 -3 34 -9 64 -12z m-2797 -314 c44 -136 130 -363 175 -464 94 -209 95
-211 79 -243 -69 -140 -211 -503 -282 -722 -15 -46 -28 -83 -30 -83 -15 0
-193 61 -299 102 -522 204 -866 501 -868 749 0 56 42 155 94 222 135 173 393
342 718 470 103 40 219 82 260 92 8 2 29 8 45 14 58 18 57 19 108 -137z m3802
83 c176 -61 218 -79 383 -162 112 -57 260 -148 321 -198 167 -138 261 -278
261 -390 0 -110 -97 -260 -250 -385 -30 -25 -57 -47 -60 -50 -10 -11 -147 -98
-205 -131 -137 -79 -322 -158 -531 -229 l-110 -37 -38 111 c-58 168 -156 414
-229 575 l-66 144 68 156 c77 175 163 398 210 541 18 52 34 101 36 108 6 16
24 12 210 -53z m-672 -1097 c120 -298 212 -546 204 -555 -9 -8 -334 -69 -472
-87 -100 -14 -125 -15 -125 -7 0 4 10 23 23 42 20 30 91 148 123 204 6 11 44
76 83 145 39 69 88 158 109 197 38 74 46 83 55 61z m-2618 -143 c61 -116 228
-401 277 -472 34 -50 34 -53 6 -48 -12 3 -44 7 -72 10 -28 3 -62 7 -76 10 -14
2 -45 7 -70 10 -40 5 -91 14 -185 31 -66 12 -168 34 -171 37 -2 2 21 73 50
158 69 198 66 191 77 214 4 11 22 56 39 100 18 44 34 83 37 88 7 11 19 -7 88
-138z m2910 -712 c3 -16 10 -44 15 -63 10 -39 39 -204 47 -265 18 -145 21
-198 21 -345 0 -262 -32 -436 -110 -581 -72 -137 -168 -192 -319 -183 -213 13
-482 135 -764 347 -74 56 -265 217 -307 259 -21 21 -23 44 -5 55 7 4 37 37 67
73 30 35 63 73 73 85 39 43 227 285 307 398 84 115 86 117 125 118 22 0 47 2
55 3 8 2 43 6 77 10 76 8 140 16 173 22 14 2 45 7 70 9 25 3 54 7 66 10 12 3
39 7 60 10 21 3 45 8 52 10 7 3 31 7 55 10 23 4 80 15 127 25 112 24 109 24
115 -7z m-3210 3 c33 -8 74 -16 90 -19 17 -3 71 -12 120 -20 123 -22 153 -26
205 -32 25 -3 61 -8 80 -11 47 -7 90 -12 185 -19 102 -8 127 -12 135 -22 4 -4
62 -81 129 -170 107 -143 339 -422 409 -493 l24 -25 -43 -38 c-147 -129 -195
-169 -294 -242 -193 -143 -368 -240 -537 -296 -114 -38 -176 -50 -273 -50
-130 -1 -205 37 -271 135 -151 228 -171 682 -52 1219 12 53 24 97 27 97 3 0
33 -7 66 -14z m1879 -236 c-78 -102 -217 -270 -274 -333 l-36 -38 -91 103
c-76 86 -133 155 -216 258 -46 58 -77 98 -77 102 0 2 173 4 384 4 l384 0 -74
-96z"/>
<path d="M3355 4071 c-89 -23 -127 -40 -194 -87 -238 -163 -319 -478 -189
-739 96 -194 282 -314 498 -321 119 -4 173 7 278 58 194 92 319 281 328 493 4
111 -13 194 -62 294 -46 94 -152 202 -243 250 -128 67 -283 87 -416 52z"/>
</g>
</svg>
